<svg width="96" xmlns="http://www.w3.org/2000/svg" height="96" id="screenshot-c3900c64-6e5e-80a3-8007-3add5790f5c4" viewBox="0 0 96 96" xmlns:xlink="http://www.w3.org/1999/xlink" fill="none" version="1.1"><g id="shape-c3900c64-6e5e-80a3-8007-3add5790f5c4"><defs><clipPath id="frame-clip-c3900c64-6e5e-80a3-8007-3add5790f5c4-render-1" class="frame-clip frame-clip-def"><rect rx="0" ry="0" x="0" y="0" width="96" height="96" transform="matrix(1.000000, 0.000000, 0.000000, 1.000000, 0.000000, 0.000000)"/></clipPath></defs><g class="frame-container-wrapper"><g class="frame-container-blur"><g class="frame-container-shadows"><g clip-path="url(#frame-clip-c3900c64-6e5e-80a3-8007-3add5790f5c4-render-1)" fill="none"><g class="fills" id="fills-c3900c64-6e5e-80a3-8007-3add5790f5c4"><rect width="96" height="96" class="frame-background" x="0" transform="matrix(1.000000, 0.000000, 0.000000, 1.000000, 0.000000, 0.000000)" style="fill: rgb(255, 255, 255); fill-opacity: 1;" ry="0" rx="0" y="0"/></g><g class="frame-children"><g id="shape-c3900c64-6e5e-80a3-8007-3add5f8a8e95"><defs><clipPath id="frame-clip-c3900c64-6e5e-80a3-8007-3add5f8a8e95-render-2" class="frame-clip frame-clip-def"><rect rx="0" ry="0" x="0" y="0" width="96" height="96" transform="matrix(1.000000, 0.000000, 0.000000, 1.000000, 0.000000, 0.000000)"/></clipPath></defs><g class="frame-container-wrapper"><g class="frame-container-blur"><defs><filter id="filter-shadow-render-2" x="0" y="0" width="1" height="1" filterUnits="objectBoundingBox" color-interpolation-filters="sRGB"><feFlood flood-opacity="0" result="BackgroundImageFix"/><feBlend mode="normal" in="SourceGraphic" in2="BackgroundImageFix" result="shape"/><feColorMatrix in="SourceAlpha" type="matrix" values="0 0 0 0 0 0 0 0 0 0 0 0 0 0 0 0 0 0 127 0" result="hardAlpha"/><feMorphology radius="12" operator="erode" in="SourceAlpha" result="filter_c3900c64-6e5e-80a3-8007-3adadc78c809"/><feOffset dx="0" dy="0"/><feGaussianBlur stdDeviation="6"/><feComposite in2="hardAlpha" operator="arithmetic" k2="-1" k3="1"/><feColorMatrix type="matrix" values="0 0 0 0 0.16470588235294117 0 0 0 0 0.11764705882352941 0 0 0 0 0.396078431372549 0 0 0 1 0"/><feBlend mode="normal" in2="shape" result="filter_c3900c64-6e5e-80a3-8007-3adadc78c809"/></filter></defs><g class="frame-container-shadows" filter="url(#filter-shadow-render-2)"><g clip-path="url(#frame-clip-c3900c64-6e5e-80a3-8007-3add5f8a8e95-render-2)" fill="none"><g class="fills" id="fills-c3900c64-6e5e-80a3-8007-3add5f8a8e95"><rect width="96" height="96" class="frame-background" x="0" transform="matrix(1.000000, 0.000000, 0.000000, 1.000000, 0.000000, 0.000000)" style="fill: rgb(45, 18, 169); fill-opacity: 1;" ry="0" rx="0" y="0"/></g><g class="frame-children"><g id="shape-c3900c64-6e5e-80a3-8007-3add5f8a8e96"><g class="frame-container-wrapper"><g class="frame-container-blur"><g class="frame-container-shadows"><g fill="none"><g class="fills" id="fills-c3900c64-6e5e-80a3-8007-3add5f8a8e96"><rect rx="0" ry="0" x="0" y="0" width="95.99999999999989" height="96" transform="matrix(1.000000, 0.000000, 0.000000, 1.000000, 0.000000, 0.000000)" class="frame-background"/></g><g class="frame-children"><g id="shape-c3900c64-6e5e-80a3-8007-3add5f8a8e9c"><g class="fills" id="fills-c3900c64-6e5e-80a3-8007-3add5f8a8e9c"><rect rx="0" ry="0" x="12.857142857143003" y="0" transform="matrix(1.000000, 0.000000, 0.000000, 1.000000, 0.000000, 0.000000)" width="1" height="96" style="fill: rgb(255, 255, 255); fill-opacity: 0.299181;"/></g></g><g id="shape-c3900c64-6e5e-80a3-8007-3add5f8a8e9b"><g class="fills" id="fills-c3900c64-6e5e-80a3-8007-3add5f8a8e9b"><rect rx="0" ry="0" x="26.714285714285893" y="0" transform="matrix(1.000000, 0.000000, 0.000000, 1.000000, 0.000000, 0.000000)" width="1" height="96" style="fill: rgb(255, 255, 255); fill-opacity: 0.299181;"/></g></g><g id="shape-c3900c64-6e5e-80a3-8007-3add5f8a8e9a"><g class="fills" id="fills-c3900c64-6e5e-80a3-8007-3add5f8a8e9a"><rect rx="0" ry="0" x="40.57142857142878" y="0" transform="matrix(1.000000, 0.000000, 0.000000, 1.000000, 0.000000, 0.000000)" width="1" height="96" style="fill: rgb(255, 255, 255); fill-opacity: 0.299181;"/></g></g><g id="shape-c3900c64-6e5e-80a3-8007-3add5f8a8e99"><g class="fills" id="fills-c3900c64-6e5e-80a3-8007-3add5f8a8e99"><rect rx="0" ry="0" x="54.42857142857167" y="0" transform="matrix(1.000000, 0.000000, 0.000000, 1.000000, 0.000000, 0.000000)" width="1" height="96" style="fill: rgb(255, 255, 255); fill-opacity: 0.299181;"/></g></g><g id="shape-c3900c64-6e5e-80a3-8007-3add5f8a8e98"><g class="fills" id="fills-c3900c64-6e5e-80a3-8007-3add5f8a8e98"><rect rx="0" ry="0" x="68.28571428571456" y="0" transform="matrix(1.000000, 0.000000, 0.000000, 1.000000, 0.000000, 0.000000)" width="1" height="96" style="fill: rgb(255, 255, 255); fill-opacity: 0.299181;"/></g></g><g id="shape-c3900c64-6e5e-80a3-8007-3add5f8a8e97"><g class="fills" id="fills-c3900c64-6e5e-80a3-8007-3add5f8a8e97"><rect rx="0" ry="0" x="82.14285714285745" y="0" transform="matrix(1.000000, 0.000000, 0.000000, 1.000000, 0.000000, 0.000000)" width="1" height="96" style="fill: rgb(255, 255, 255); fill-opacity: 0.299181;"/></g></g></g></g></g></g></g></g><g id="shape-c3900c64-6e5e-80a3-8007-3add5f8a8e9d"><g class="frame-container-wrapper"><g class="frame-container-blur"><g class="frame-container-shadows"><g fill="none"><g class="fills" id="fills-c3900c64-6e5e-80a3-8007-3add5f8a8e9d"><rect rx="0" ry="0" x="-2.2737367544323206e-13" y="2.2737367544323206e-13" width="96" height="96" transform="matrix(0.000000, 1.000000, -1.000000, 0.000000, 96.000000, 0.000000)" class="frame-background"/></g><g class="frame-children"><g id="shape-c3900c64-6e5e-80a3-8007-3add5f8a8ea3"><g class="fills" id="fills-c3900c64-6e5e-80a3-8007-3add5f8a8ea3"><rect rx="0" ry="0" x="47.49999999999977" y="-34.642857142856826" transform="matrix(0.000000, 1.000000, -1.000000, 0.000000, 61.357143, -34.642857)" width="1" height="96" style="fill: rgb(255, 255, 255); fill-opacity: 0.299181;"/></g></g><g id="shape-c3900c64-6e5e-80a3-8007-3add5f8a8ea2"><g class="fills" id="fills-c3900c64-6e5e-80a3-8007-3add5f8a8ea2"><rect rx="0" ry="0" x="47.49999999999977" y="-20.78571428571405" transform="matrix(0.000000, 1.000000, -1.000000, 0.000000, 75.214286, -20.785714)" width="1" height="96" style="fill: rgb(255, 255, 255); fill-opacity: 0.299181;"/></g></g><g id="shape-c3900c64-6e5e-80a3-8007-3add5f8a8ea1"><g class="fills" id="fills-c3900c64-6e5e-80a3-8007-3add5f8a8ea1"><rect rx="0" ry="0" x="47.49999999999977" y="-6.928571428571217" transform="matrix(0.000000, 1.000000, -1.000000, 0.000000, 89.071429, -6.928571)" width="1" height="96" style="fill: rgb(255, 255, 255); fill-opacity: 0.299181;"/></g></g><g id="shape-c3900c64-6e5e-80a3-8007-3add5f8a8ea0"><g class="fills" id="fills-c3900c64-6e5e-80a3-8007-3add5f8a8ea0"><rect rx="0" ry="0" x="47.49999999999977" y="6.928571428571615" transform="matrix(0.000000, 1.000000, -1.000000, 0.000000, 102.928571, 6.928571)" width="1" height="96" style="fill: rgb(255, 255, 255); fill-opacity: 0.299181;"/></g></g><g id="shape-c3900c64-6e5e-80a3-8007-3add5f8a8e9f"><g class="fills" id="fills-c3900c64-6e5e-80a3-8007-3add5f8a8e9f"><rect rx="0" ry="0" x="47.49999999999977" y="20.785714285714448" transform="matrix(0.000000, 1.000000, -1.000000, 0.000000, 116.785714, 20.785714)" width="1" height="96" style="fill: rgb(255, 255, 255); fill-opacity: 0.299181;"/></g></g><g id="shape-c3900c64-6e5e-80a3-8007-3add5f8a8e9e"><g class="fills" id="fills-c3900c64-6e5e-80a3-8007-3add5f8a8e9e"><rect rx="0" ry="0" x="47.49999999999977" y="34.64285714285728" transform="matrix(0.000000, 1.000000, -1.000000, 0.000000, 130.642857, 34.642857)" width="1" height="96" style="fill: rgb(255, 255, 255); fill-opacity: 0.299181;"/></g></g></g></g></g></g></g></g></g></g></g></g></g></g><g id="shape-c3900c64-6e5e-80a3-8007-3add661ca4ef"><defs><clipPath id="frame-clip-c3900c64-6e5e-80a3-8007-3add661ca4ef-render-17" class="frame-clip frame-clip-def"><rect rx="0" ry="0" x="0" y="0" width="96" height="96" transform="matrix(1.000000, 0.000000, 0.000000, 1.000000, 0.000000, 0.000000)"/></clipPath></defs><g class="frame-container-wrapper"><g class="frame-container-blur"><g class="frame-container-shadows"><g clip-path="url(#frame-clip-c3900c64-6e5e-80a3-8007-3add661ca4ef-render-17)" fill="none"><g class="fills" id="fills-c3900c64-6e5e-80a3-8007-3add661ca4ef"><rect rx="0" ry="0" x="0" y="0" width="96" height="96" transform="matrix(1.000000, 0.000000, 0.000000, 1.000000, 0.000000, 0.000000)" class="frame-background"/></g><g class="frame-children"><g id="shape-c3900c64-6e5e-80a3-8007-3adf69d161f4"><g class="frame-container-wrapper"><g class="frame-container-blur"><g class="frame-container-shadows"><g fill="none"><g class="fills" id="fills-c3900c64-6e5e-80a3-8007-3adf69d161f4"><rect rx="0" ry="0" x="64.3347592036597" y="21.966719039523923" width="13.999999999999773" height="48" transform="matrix(0.995554, 0.094189, -0.094189, 0.995554, 4.646680, -6.514584)" class="frame-background"/></g><g class="frame-children"><g id="shape-c3900c64-6e5e-80a3-8007-3adf69d161f5"><g class="fills" id="fills-c3900c64-6e5e-80a3-8007-3adf69d161f5"><rect rx="1.22229082844826" ry="1.22229082844826" x="64.3347592036597" y="21.966719039523923" transform="matrix(0.995554, 0.094189, -0.094189, 0.995554, 4.646680, -6.514584)" width="13.999999999999773" height="48" style="fill: rgb(255, 255, 255); fill-opacity: 0.5;"/></g><g id="strokes-d82e1852-20fa-8095-8007-3c167e1d262f-c3900c64-6e5e-80a3-8007-3adf69d161f5" class="strokes"><g class="inner-stroke-shape" transform="matrix(0.995554, 0.094189, -0.094189, 0.995554, 4.646680, -6.514584)"><defs><clipPath id="inner-stroke-render-19-c3900c64-6e5e-80a3-8007-3adf69d161f5-0"><use href="#stroke-shape-render-19-c3900c64-6e5e-80a3-8007-3adf69d161f5-0"/></clipPath><rect rx="1.22229082844826" ry="1.22229082844826" x="64.3347592036597" y="21.966719039523923" width="13.999999999999773" height="48" id="stroke-shape-render-19-c3900c64-6e5e-80a3-8007-3adf69d161f5-0" style="fill: none; stroke-width: 1.22229; stroke: rgb(0, 0, 0); stroke-opacity: 1;"/></defs><use href="#stroke-shape-render-19-c3900c64-6e5e-80a3-8007-3adf69d161f5-0" clip-path="url('#inner-stroke-render-19-c3900c64-6e5e-80a3-8007-3adf69d161f5-0')"/></g></g></g><g id="shape-c3900c64-6e5e-80a3-8007-3adf69d161f6"><g class="fills" id="fills-c3900c64-6e5e-80a3-8007-3adf69d161f6"><rect rx="1.22229082844826" ry="1.22229082844826" x="64.3347592036597" y="21.966719039523923" transform="matrix(0.995554, 0.094189, -0.094189, 0.995554, 4.646680, -6.514584)" width="13.999999999999773" height="48" style="fill: rgb(255, 255, 255); fill-opacity: 0.5;"/></g><g id="strokes-d82e1852-20fa-8095-8007-3c167e1dc595-c3900c64-6e5e-80a3-8007-3adf69d161f6" class="strokes"><g class="inner-stroke-shape" transform="matrix(0.995554, 0.094189, -0.094189, 0.995554, 4.646680, -6.514584)"><defs><clipPath id="inner-stroke-render-20-c3900c64-6e5e-80a3-8007-3adf69d161f6-0"><use href="#stroke-shape-render-20-c3900c64-6e5e-80a3-8007-3adf69d161f6-0"/></clipPath><rect rx="1.22229082844826" ry="1.22229082844826" x="64.3347592036597" y="21.966719039523923" width="13.999999999999773" height="48" id="stroke-shape-render-20-c3900c64-6e5e-80a3-8007-3adf69d161f6-0" style="fill: none; stroke-width: 1.22229; stroke: rgb(0, 0, 0); stroke-opacity: 1;"/></defs><use href="#stroke-shape-render-20-c3900c64-6e5e-80a3-8007-3adf69d161f6-0" clip-path="url('#inner-stroke-render-20-c3900c64-6e5e-80a3-8007-3adf69d161f6-0')"/></g></g></g><g id="shape-c3900c64-6e5e-80a3-8007-3adf69d161f7"><g class="frame-container-wrapper"><g class="frame-container-blur"><g class="frame-container-shadows"><g fill="none"><g class="fills" id="fills-c3900c64-6e5e-80a3-8007-3adf69d161f7"><rect rx="0" ry="0" x="65.22290150461072" y="25.92533935696821" width="5.173913043478478" height="36.53731343283596" transform="matrix(0.995554, 0.094189, -0.094189, 0.995554, 4.464039, -6.190459)" class="frame-background"/></g><g class="frame-children"><g id="shape-c3900c64-6e5e-80a3-8007-3adf69d161f8"><g class="fills" id="fills-c3900c64-6e5e-80a3-8007-3adf69d161f8"><path d="M66.955078125,25.762847900390625L72.1060791015625,26.25018310546875"/></g><g id="strokes-d82e1852-20fa-8095-8007-3c167e1eef8b-c3900c64-6e5e-80a3-8007-3adf69d161f8" class="strokes"><g class="stroke-shape"><path d="M66.955078125,25.762847900390625L72.1060791015625,26.25018310546875" style="fill: none; stroke-width: 0.611145; stroke: rgb(0, 0, 0); stroke-opacity: 1;"/></g></g></g><g id="shape-c3900c64-6e5e-80a3-8007-3adf69d161f9"><g class="fills" id="fills-c3900c64-6e5e-80a3-8007-3adf69d161f9"><path d="M66.63812255859375,29.113128662109375L69.67291259765625,29.400238037109375"/></g><g id="strokes-d82e1852-20fa-8095-8007-3c167e1f7d9e-c3900c64-6e5e-80a3-8007-3adf69d161f9" class="strokes"><g class="stroke-shape"><path d="M66.63812255859375,29.113128662109375L69.67291259765625,29.400238037109375" style="fill: none; stroke-width: 0.305573; stroke: rgb(0, 0, 0); stroke-opacity: 1;"/></g></g></g><g id="shape-c3900c64-6e5e-80a3-8007-3adf69d161fa"><g class="fills" id="fills-c3900c64-6e5e-80a3-8007-3adf69d161fa"><path d="M66.3211669921875,32.463348388671875L71.47210693359375,32.95068359375"/></g><g id="strokes-d82e1852-20fa-8095-8007-3c167e1fa45d-c3900c64-6e5e-80a3-8007-3adf69d161fa" class="strokes"><g class="stroke-shape"><path d="M66.3211669921875,32.463348388671875L71.47210693359375,32.95068359375" style="fill: none; stroke-width: 0.611145; stroke: rgb(0, 0, 0); stroke-opacity: 1;"/></g></g></g><g id="shape-c3900c64-6e5e-80a3-8007-3adf69d161fb"><g class="fills" id="fills-c3900c64-6e5e-80a3-8007-3adf69d161fb"><path d="M66.00421142578125,35.813568115234375L69.03900146484375,36.100677490234375"/></g><g id="strokes-d82e1852-20fa-8095-8007-3c167e1fc5ca-c3900c64-6e5e-80a3-8007-3adf69d161fb" class="strokes"><g class="stroke-shape"><path d="M66.00421142578125,35.813568115234375L69.03900146484375,36.100677490234375" style="fill: none; stroke-width: 0.305573; stroke: rgb(0, 0, 0); stroke-opacity: 1;"/></g></g></g><g id="shape-c3900c64-6e5e-80a3-8007-3adf69d161fc"><g class="fills" id="fills-c3900c64-6e5e-80a3-8007-3adf69d161fc"><path d="M65.687255859375,39.16375732421875L70.83819580078125,39.651123046875"/></g><g id="strokes-d82e1852-20fa-8095-8007-3c167e20ff4b-c3900c64-6e5e-80a3-8007-3adf69d161fc" class="strokes"><g class="stroke-shape"><path d="M65.687255859375,39.16375732421875L70.83819580078125,39.651123046875" style="fill: none; stroke-width: 0.611145; stroke: rgb(0, 0, 0); stroke-opacity: 1;"/></g></g></g><g id="shape-c3900c64-6e5e-80a3-8007-3adf69d161fd"><g class="fills" id="fills-c3900c64-6e5e-80a3-8007-3adf69d161fd"><path d="M65.37030029296875,42.51397705078125L68.40509033203125,42.80108642578125"/></g><g id="strokes-d82e1852-20fa-8095-8007-3c167e2119e4-c3900c64-6e5e-80a3-8007-3adf69d161fd" class="strokes"><g class="stroke-shape"><path d="M65.37030029296875,42.51397705078125L68.40509033203125,42.80108642578125" style="fill: none; stroke-width: 0.305573; stroke: rgb(0, 0, 0); stroke-opacity: 1;"/></g></g></g><g id="shape-c3900c64-6e5e-80a3-8007-3adf69d161fe"><g class="fills" id="fills-c3900c64-6e5e-80a3-8007-3adf69d161fe"><path d="M65.0533447265625,45.8642578125L70.20428466796875,46.3515625"/></g><g id="strokes-d82e1852-20fa-8095-8007-3c167e2162ee-c3900c64-6e5e-80a3-8007-3adf69d161fe" class="strokes"><g class="stroke-shape"><path d="M65.0533447265625,45.8642578125L70.20428466796875,46.3515625" style="fill: none; stroke-width: 0.611145; stroke: rgb(0, 0, 0); stroke-opacity: 1;"/></g></g></g><g id="shape-c3900c64-6e5e-80a3-8007-3adf69d161ff"><g class="fills" id="fills-c3900c64-6e5e-80a3-8007-3adf69d161ff"><path d="M64.73638916015625,49.2144775390625L67.7711181640625,49.5015869140625"/></g><g id="strokes-d82e1852-20fa-8095-8007-3c167e218bbc-c3900c64-6e5e-80a3-8007-3adf69d161ff" class="strokes"><g class="stroke-shape"><path d="M64.73638916015625,49.2144775390625L67.7711181640625,49.5015869140625" style="fill: none; stroke-width: 0.305573; stroke: rgb(0, 0, 0); stroke-opacity: 1;"/></g></g></g><g id="shape-c3900c64-6e5e-80a3-8007-3adf69d16200"><g class="fills" id="fills-c3900c64-6e5e-80a3-8007-3adf69d16200"><path d="M64.41937255859375,52.564727783203125L69.57037353515625,53.052032470703125"/></g><g id="strokes-d82e1852-20fa-8095-8007-3c167e21e910-c3900c64-6e5e-80a3-8007-3adf69d16200" class="strokes"><g class="stroke-shape"><path d="M64.41937255859375,52.564727783203125L69.57037353515625,53.052032470703125" style="fill: none; stroke-width: 0.611145; stroke: rgb(0, 0, 0); stroke-opacity: 1;"/></g></g></g><g id="shape-c3900c64-6e5e-80a3-8007-3adf69d16201"><g class="fills" id="fills-c3900c64-6e5e-80a3-8007-3adf69d16201"><path d="M64.1024169921875,55.9149169921875L67.13720703125,56.202056884765625"/></g><g id="strokes-d82e1852-20fa-8095-8007-3c167e221a58-c3900c64-6e5e-80a3-8007-3adf69d16201" class="strokes"><g class="stroke-shape"><path d="M64.1024169921875,55.9149169921875L67.13720703125,56.202056884765625" style="fill: none; stroke-width: 0.305573; stroke: rgb(0, 0, 0); stroke-opacity: 1;"/></g></g></g><g id="shape-c3900c64-6e5e-80a3-8007-3adf69d16202"><g class="fills" id="fills-c3900c64-6e5e-80a3-8007-3adf69d16202"><path d="M63.78546142578125,59.265167236328125L68.9364013671875,59.75250244140625"/></g><g id="strokes-d82e1852-20fa-8095-8007-3c167e22c776-c3900c64-6e5e-80a3-8007-3adf69d16202" class="strokes"><g class="stroke-shape"><path d="M63.78546142578125,59.265167236328125L68.9364013671875,59.75250244140625" style="fill: none; stroke-width: 0.611145; stroke: rgb(0, 0, 0); stroke-opacity: 1;"/></g></g></g><g id="shape-c3900c64-6e5e-80a3-8007-3adf69d16203"><g class="fills" id="fills-c3900c64-6e5e-80a3-8007-3adf69d16203"><path d="M63.468505859375,62.61541748046875L66.5032958984375,62.90252685546875"/></g><g id="strokes-d82e1852-20fa-8095-8007-3c167e230669-c3900c64-6e5e-80a3-8007-3adf69d16203" class="strokes"><g class="stroke-shape"><path d="M63.468505859375,62.61541748046875L66.5032958984375,62.90252685546875" style="fill: none; stroke-width: 0.305573; stroke: rgb(0, 0, 0); stroke-opacity: 1;"/></g></g></g><g id="shape-c3900c64-6e5e-80a3-8007-3adf69d16204"><g class="fills" id="fills-c3900c64-6e5e-80a3-8007-3adf69d16204"><path d="M63.15155029296875,65.96563720703125L68.302490234375,66.45297241210938"/></g><g id="strokes-d82e1852-20fa-8095-8007-3c167e23717e-c3900c64-6e5e-80a3-8007-3adf69d16204" class="strokes"><g class="stroke-shape"><path d="M63.15155029296875,65.96563720703125L68.302490234375,66.45297241210938" style="fill: none; stroke-width: 0.611145; stroke: rgb(0, 0, 0); stroke-opacity: 1;"/></g></g></g></g></g></g></g></g></g></g></g></g></g></g></g><g id="shape-c3900c64-6e5e-80a3-8007-3aedb5e3031b"><g class="frame-container-wrapper"><g class="frame-container-blur"><g class="frame-container-shadows"><g fill="none"><g class="fills" id="fills-c3900c64-6e5e-80a3-8007-3aedb5e3031b"><rect rx="0" ry="0" x="73.53173730269259" y="20.64874666057625" width="3.9999999999997726" height="51" transform="matrix(0.965926, 0.258819, -0.258819, 0.965926, 14.517856, -17.976572)" class="frame-background"/></g><g class="frame-children"><g id="shape-c3900c64-6e5e-80a3-8007-3aedb5e3031c" rx="0" ry="0"><g id="shape-c3900c64-6e5e-80a3-8007-3aedb5e3031d"><g class="fills" id="fills-c3900c64-6e5e-80a3-8007-3aedb5e3031d"><path d="M79.86370849609375,22.25408935546875C80.0491943359375,21.56195068359375,80.69439697265625,21.132537841796875,81.3037109375,21.295806884765625L82.95953369140625,21.739471435546875C83.56884765625,21.902740478515625,83.91290283203125,22.59722900390625,83.7274169921875,23.28936767578125L72.47021484375,65.30191040039062C72.2847900390625,65.99404907226562,68.93182373046875,70.77984619140625,68.93182373046875,70.77984619140625L68.93182373046875,70.77984619140625C68.93182373046875,70.77984619140625,68.42108154296875,64.95877075195312,68.60650634765625,64.26663208007812L79.86370849609375,22.25408935546875" style="fill: rgb(177, 178, 181); fill-opacity: 1;"/></g></g><g id="shape-c3900c64-6e5e-80a3-8007-3aedb5e3031e"><g class="fills" id="fills-c3900c64-6e5e-80a3-8007-3aedb5e3031e"><path d="M79.191650390625,24.762298583984375C79.191650390625,24.762298583984375,79.686279296875,24.89483642578125,80.29559326171875,25.05810546875L81.951416015625,25.50177001953125C82.56072998046875,25.6650390625,83.05535888671875,25.797576904296875,83.05535888671875,25.797576904296875L72.47021484375,65.30191040039062C72.2847900390625,65.99404907226562,72.14361572265625,64.54229736328125,71.5343017578125,64.37905883789062L70.454345703125,65.0977783203125L69.3743896484375,65.8165283203125C68.76513671875,65.65325927734375,68.42108154296875,64.95877075195312,68.60650634765625,64.26663208007812L79.191650390625,24.762298583984375" style="fill: rgb(52, 52, 49); fill-opacity: 1;"/></g></g><g id="shape-c3900c64-6e5e-80a3-8007-3aedb5e3031f"><g class="fills" id="fills-c3900c64-6e5e-80a3-8007-3aedb5e3031f"><rect rx="0" ry="0" x="79.03950461842987" y="25.268892954426917" transform="matrix(0.965926, 0.258819, -0.258819, 0.965926, 9.385434, -20.102491)" width="3.9999999999997726" height="0.6491724951007427" style="fill: rgb(192, 192, 192); fill-opacity: 1;"/></g></g><g id="shape-c3900c64-6e5e-80a3-8007-3aedb5e30320"><g class="fills" id="fills-c3900c64-6e5e-80a3-8007-3aedb5e30320"><path d="M80.90604934959885,21.451278041105752 h1.4430379746833173 a1.2784810126582278,1.2784810126582278 0 0 1 1.2784810126582278,1.2784810126582278 v2.616553957945376 a0,0 0 0 1 0,0 h-3.9999999999997726 a0,0 0 0 1 0,0 v-2.616553957945376 a1.2784810126582278,1.2784810126582278 0 0 1 1.2784810126582278,-1.2784810126582278 z" x="79.62756833694061" y="21.451278041105752" transform="matrix(0.965926, 0.258819, -0.258819, 0.965926, 8.837446, -20.329475)" width="3.9999999999997726" height="3.8950349706036036" style="fill: rgb(236, 68, 112); fill-opacity: 1;"/></g></g></g><g id="shape-c3900c64-6e5e-80a3-8007-3aedb5e30321"><g class="fills" id="fills-c3900c64-6e5e-80a3-8007-3aedb5e30321"><path d="M69.015380859375,70.46807861328125L68.88116455078125,68.76123046875L69.98504638671875,69.05703735351562L69.015380859375,70.46807861328125" style="fill: rgb(12, 12, 12); fill-opacity: 1;"/></g></g><g id="shape-c3900c64-6e5e-80a3-8007-3aedb5e36af5"><g class="fills" id="fills-c3900c64-6e5e-80a3-8007-3aedb5e36af5"><path d="M69.44061279296875,65.56942749023438L80.13409423828125,25.660797119140625"/></g><g id="strokes-d82e1852-20fa-8095-8007-3c167e25fc46-c3900c64-6e5e-80a3-8007-3aedb5e36af5" class="strokes"><g class="stroke-shape"><path d="M69.44061279296875,65.56942749023438L80.13409423828125,25.660797119140625" style="fill: none; stroke-width: 0.15981; stroke: rgb(227, 227, 227); stroke-opacity: 1;"/></g></g></g><g id="shape-c3900c64-6e5e-80a3-8007-3aedb5e36af6"><g class="fills" id="fills-c3900c64-6e5e-80a3-8007-3aedb5e36af6"><rect rx="0.7142857142856656" ry="0.7142857142856656" x="80.01871284903496" y="27.560454586824278" transform="matrix(0.965926, 0.258819, -0.258819, 0.965926, 10.385338, -19.890146)" width="1.4285714285713311" height="3.87341772151899" style="fill: rgb(177, 178, 181); fill-opacity: 1;"/></g></g></g></g></g></g></g></g><g id="shape-c3900c64-6e5e-80a3-8007-3aeffcf82261"><g class="frame-container-wrapper"><g class="frame-container-blur"><g class="frame-container-shadows"><g fill="none"><g class="fills" id="fills-c3900c64-6e5e-80a3-8007-3aeffcf82261"><rect rx="0" ry="0" x="17" y="23" width="13" height="42" transform="matrix(0.965926, -0.258819, 0.258819, 0.965926, -10.587295, 7.581511)" class="frame-background"/></g><g class="frame-children"><g id="shape-c3900c64-6e5e-80a3-8007-3aeffcf82262" rx="0" ry="0"><g id="shape-c3900c64-6e5e-80a3-8007-3aeffcf82263"><g class="fills" id="fills-c3900c64-6e5e-80a3-8007-3aeffcf82263"><path d="M12.1259765625,26.6656494140625L24.68304443359375,23.301025390625L26.89105224609375,31.54156494140625L25.94647216796875,35.191680908203125L33.16510009765625,62.131927490234375C33.16510009765625,62.131927490234375,33.2818603515625,63.119720458984375,32.31591796875,63.3785400390625C30.7060546875,63.809906005859375,26.2598876953125,65.00131225585938,25.232421875,65.27655029296875C24.5885009765625,65.4490966796875,24.19573974609375,64.53524780273438,24.19573974609375,64.53524780273438L16.97711181640625,37.595001220703125L14.33404541015625,34.906219482421875L12.1259765625,26.6656494140625" style="fill: rgb(55, 55, 55); fill-opacity: 1;"/></g></g><g id="shape-c3900c64-6e5e-80a3-8007-3aeffcf82264"><g class="fills" id="fills-c3900c64-6e5e-80a3-8007-3aeffcf82264"><path d="M13.04714910874344,23.69319648564857 h10.375001668928803 a1.3124991655355984,1.3124991655355984 0 0 1 1.3124991655355984,1.3124991655355984 v0 a0,0 0 0 1 0,0 h-13 a0,0 0 0 1 0,0 v0 a1.3124991655355984,1.3124991655355984 0 0 1 1.3124991655355984,-1.3124991655355984 z" x="11.734649943207842" y="23.69319648564857" transform="matrix(0.965926, -0.258819, 0.258819, 0.965926, -5.680770, 5.549162)" width="13" height="1.3124991655355984" style="fill: rgb(177, 178, 181); fill-opacity: 1;"/></g></g><g id="shape-c3900c64-6e5e-80a3-8007-3aeffcf82265"><g class="fills" id="fills-c3900c64-6e5e-80a3-8007-3aeffcf82265"><rect rx="0" ry="0" x="14.027623463079635" y="32.57881495360425" transform="matrix(0.965926, -0.258819, -0.258819, -0.965926, 9.216405, 70.005543)" width="13" height="0.6562495827675434" style="fill: rgb(177, 178, 181); fill-opacity: 1;"/></g></g><g id="shape-c3900c64-6e5e-80a3-8007-3aeffcf82266"><g class="fills" id="fills-c3900c64-6e5e-80a3-8007-3aeffcf82266"><rect rx="0" ry="0" x="16.9038656624258" y="36.382145476514665" transform="matrix(0.965926, -0.258819, -0.258819, -0.965926, 10.235504, 77.746371)" width="9.285714285714448" height="0.656249582767714" style="fill: rgb(177, 178, 181); fill-opacity: 1;"/></g></g></g></g></g></g></g></g></g><g id="shape-c3900c64-6e5e-80a3-8007-3ae023d1efa1"><g class="frame-container-wrapper"><g class="frame-container-blur"><g class="frame-container-shadows"><g fill="none"><g class="fills" id="fills-c3900c64-6e5e-80a3-8007-3ae023d1efa1"><rect rx="0" ry="0" x="22" y="21" width="52" height="26.000000000000057" transform="matrix(1.000000, 0.000000, 0.000000, 1.000000, 0.000000, 0.000000)" class="frame-background"/></g><g class="frame-children"><g id="shape-c3900c64-6e5e-80a3-8007-3ae023d1efa2" rx="0" ry="0"><g id="shape-c3900c64-6e5e-80a3-8007-3ae023d1efa3"><defs><linearGradient id="fill-color-gradient-render-52-0" x1="0.5" y1="0" x2="0.5" y2="1" gradientTransform=""><stop offset="0" stop-color="#39d046" stop-opacity="1"/><stop offset="1" stop-color="#1d7b24" stop-opacity="1"/></linearGradient><pattern patternUnits="userSpaceOnUse" x="22" y="21" width="52" height="26.000000000000057" patternTransform="matrix(1.000000, 0.000000, 0.000000, 1.000000, 0.000000, 0.000000)" id="fill-0-render-52"><g><rect width="52" height="26.000000000000057" style="fill: url(&quot;#fill-color-gradient-render-52-0&quot;);"/></g></pattern></defs><g class="fills" id="fills-c3900c64-6e5e-80a3-8007-3ae023d1efa3"><path d="M48,21C62.3497314453125,21,74,32.65020751953125,74,47C74,47,22,47,22,47C22,32.65020751953125,33.6502685546875,21,48,21" fill="url(#fill-0-render-52)"/></g></g><g id="shape-c3900c64-6e5e-80a3-8007-3ae023d1efa4" rx="0" ry="0"><g id="shape-c3900c64-6e5e-80a3-8007-3ae023d1efa5"><g class="fills" id="fills-c3900c64-6e5e-80a3-8007-3ae023d1efa5"><ellipse cx="38.029211956521635" cy="34.28260869565224" rx="1.8987771739131176" ry="1.978260869565247" transform="matrix(1.000000, 0.000000, 0.000000, 1.000000, 0.000000, 0.000000)" style="fill: rgb(255, 255, 255); fill-opacity: 1;"/></g></g><g id="shape-c3900c64-6e5e-80a3-8007-3ae023d1efa6"><g class="fills" id="fills-c3900c64-6e5e-80a3-8007-3ae023d1efa6"><ellipse cx="58.53600543478251" cy="34.28260869565224" rx="1.8987771739131176" ry="1.978260869565247" transform="matrix(1.000000, 0.000000, 0.000000, 1.000000, 0.000000, 0.000000)" style="fill: rgb(255, 255, 255); fill-opacity: 1;"/></g></g></g></g></g></g></g></g></g></g><g id="shape-c3900c64-6e5e-80a3-8007-3add661cec54"><g class="frame-container-wrapper"><g class="frame-container-blur"><g class="frame-container-shadows"><g fill="none"><g class="fills" id="fills-c3900c64-6e5e-80a3-8007-3add661cec54"><rect rx="0" ry="0" x="15.5" y="37.5" width="65" height="47" transform="matrix(1.000000, 0.000000, 0.000000, 1.000000, 0.000000, 0.000000)" class="frame-background"/></g><g class="frame-children"><g id="shape-c3900c64-6e5e-80a3-8007-3add661cec55"><defs><linearGradient id="fill-color-gradient-render-57-0" x1="0.35712392621750183" y1="0.26923312783510195" x2="0.7070293026333624" y2="0.7329815390349792" gradientTransform=""><stop offset="0" stop-color="#ffffff" stop-opacity="1"/><stop offset="1" stop-color="#c3c3c3" stop-opacity="1"/></linearGradient><pattern patternUnits="userSpaceOnUse" x="15" y="42" width="65.5" height="38.5" patternTransform="matrix(1.000000, 0.000000, 0.000000, 1.000000, 0.000000, 0.000000)" id="fill-0-render-57"><g><rect width="65.5" height="38.5" style="fill: url(&quot;#fill-color-gradient-render-57-0&quot;);"/></g></pattern></defs><g class="fills" id="fills-c3900c64-6e5e-80a3-8007-3add661cec55"><path d="M15,42L80,42L80.5,69.55413818359375L47.87640380859375,80.5L15.5,69.55413818359375L15,42" fill="url(#fill-0-render-57)"/></g><g id="strokes-d82e1852-20fa-8095-8007-3c167e2b4ebc-c3900c64-6e5e-80a3-8007-3add661cec55" class="strokes"><g class="inner-stroke-shape"><defs><clipPath id="inner-stroke-render-57-c3900c64-6e5e-80a3-8007-3add661cec55-0"><use href="#stroke-shape-render-57-c3900c64-6e5e-80a3-8007-3add661cec55-0"/></clipPath><path d="M15,42L80,42L80.5,69.55413818359375L47.87640380859375,80.5L15.5,69.55413818359375L15,42" id="stroke-shape-render-57-c3900c64-6e5e-80a3-8007-3add661cec55-0" style="fill: none; stroke-width: 4; stroke: rgb(206, 206, 206); stroke-opacity: 1;"/></defs><use href="#stroke-shape-render-57-c3900c64-6e5e-80a3-8007-3add661cec55-0" clip-path="url('#inner-stroke-render-57-c3900c64-6e5e-80a3-8007-3add661cec55-0')"/></g></g></g></g></g></g></g></g></g></g></g></g></g></g></g></g></g></g></g></g></g></svg>